<svg width="48" height="40" viewBox="0 0 48 40" fill="none" xmlns="http://www.w3.org/2000/svg">
<path fill-rule="evenodd" clip-rule="evenodd" d="M3.31613 17.285C16.1829 11.5928 24.7837 7.91362 29.1185 6.10876C41.3661 0.97185 43.9119 0.0694177 45.5633 0C45.9073 0 46.733 0.0694182 47.2834 0.485924C47.6963 0.833013 47.8339 1.31894 47.9027 1.66603C47.9715 2.01311 48.0403 2.77671 47.9715 3.40147C47.2834 10.4127 44.4624 27.5588 42.9486 35.403C42.3294 38.7351 41.0909 39.8458 39.9211 39.9846C37.3753 40.1928 35.3799 38.2491 32.9029 36.6525C29.0497 34.0841 26.8479 32.4875 23.0636 29.9884C18.7288 27.0729 21.5498 25.4763 24.0269 22.9078C24.6461 22.2137 35.9992 11.8704 36.2056 10.8986C36.2056 10.7597 36.2744 10.3432 35.9992 10.135C35.724 9.92673 35.3799 9.99615 35.1047 10.0656C34.6919 10.135 28.4993 14.3 16.4582 22.4913C14.6692 23.7409 13.0866 24.2962 11.6417 24.2962C10.0592 24.2962 7.03167 23.3938 4.76106 22.6302C2.00881 21.7277 -0.192999 21.2418 0.0134198 19.7146C0.151033 18.951 1.25193 18.118 3.31613 17.285Z" fill="white"/>
</svg>
