<svg width="14" height="12" viewBox="0 0 14 12" fill="none" xmlns="http://www.w3.org/2000/svg">
<path fill-rule="evenodd" clip-rule="evenodd" d="M0.967204 5.1855C4.72002 3.47783 7.22859 2.37409 8.49291 1.83263C12.0651 0.291555 12.8076 0.0208253 13.2893 0C13.3896 0 13.6305 0.0208255 13.791 0.145777C13.9114 0.249904 13.9516 0.395681 13.9716 0.499808C13.9917 0.603934 14.0118 0.833013 13.9917 1.02044C13.791 3.1238 12.9682 8.26765 12.5267 10.6209C12.3461 11.6205 11.9848 11.9537 11.6437 11.9954C10.9011 12.0579 10.3191 11.4747 9.59668 10.9958C8.47284 10.2252 7.83065 9.74624 6.72688 8.99653C5.46256 8.12187 6.28537 7.64289 7.00783 6.87235C7.18845 6.6641 10.4998 3.56113 10.56 3.26957C10.56 3.22792 10.58 3.10297 10.4998 3.0405C10.4195 2.97802 10.3191 2.99884 10.2389 3.01967C10.1185 3.04049 8.31229 4.29001 4.8003 6.7474C4.27851 7.12226 3.81694 7.28886 3.3955 7.28886C2.93392 7.28886 2.05091 7.01813 1.38864 6.78905C0.585902 6.51832 -0.0562915 6.37254 0.00391411 5.91439C0.0440512 5.68531 0.365148 5.43541 0.967204 5.1855Z" fill="#838383"/>
</svg>
