<svg width="40" height="40" viewBox="0 0 40 40" fill="none" xmlns="http://www.w3.org/2000/svg">
<rect width="40" height="40" rx="8" fill="#F5F5F5"/>
<path d="M9.28 19.88L14.2 12.2H17.08L13.24 18.08L13.504 18.032C13.84 17.984 14.112 17.96 14.32 17.96C15.936 17.96 17.296 18.512 18.4 19.616C19.52 20.704 20.08 22.032 20.08 23.6C20.08 25.184 19.512 26.52 18.376 27.608C17.24 28.696 15.808 29.24 14.08 29.24C12.352 29.24 10.92 28.696 9.784 27.608C8.648 26.52 8.08 25.184 8.08 23.6C8.08 22.784 8.28 21.928 8.68 21.032C8.808 20.712 9.008 20.328 9.28 19.88ZM11.68 21.296C11.04 21.92 10.72 22.688 10.72 23.6C10.72 24.512 11.04 25.28 11.68 25.904C12.32 26.528 13.12 26.84 14.08 26.84C15.04 26.84 15.84 26.528 16.48 25.904C17.12 25.28 17.44 24.512 17.44 23.6C17.44 22.688 17.12 21.92 16.48 21.296C15.84 20.672 15.04 20.36 14.08 20.36C13.12 20.36 12.32 20.672 11.68 21.296ZM21.9963 23V20.84H26.3163V16.52H28.3563V20.84H32.6763V23H28.3563V27.32H26.3163V23H21.9963Z" fill="#151515"/>
</svg>
