<svg width="20" height="20" viewBox="0 0 20 20" fill="none" xmlns="http://www.w3.org/2000/svg">
<mask id="mask0_4249_852" style="mask-type:alpha" maskUnits="userSpaceOnUse" x="0" y="0" width="20" height="20">
<rect width="20" height="20" fill="#D9D9D9"/>
</mask>
<g mask="url(#mask0_4249_852)">
<path d="M14.6249 10.0007L11.6666 7.04232L12.8541 5.87565L14.6249 7.64648L18.1666 4.10482L19.3333 5.29232L14.6249 10.0007ZM7.49992 10.0007C6.58325 10.0007 5.79853 9.67426 5.14575 9.02148C4.49297 8.36871 4.16659 7.58398 4.16659 6.66732C4.16659 5.75065 4.49297 4.96593 5.14575 4.31315C5.79853 3.66037 6.58325 3.33398 7.49992 3.33398C8.41658 3.33398 9.20131 3.66037 9.85408 4.31315C10.5069 4.96593 10.8333 5.75065 10.8333 6.66732C10.8333 7.58398 10.5069 8.36871 9.85408 9.02148C9.20131 9.67426 8.41658 10.0007 7.49992 10.0007ZM0.833252 16.6673V14.334C0.833252 13.8618 0.95478 13.4277 1.19784 13.0319C1.44089 12.6361 1.76381 12.334 2.16659 12.1257C3.0277 11.6951 3.9027 11.3722 4.79159 11.1569C5.68047 10.9416 6.58325 10.834 7.49992 10.834C8.41658 10.834 9.31936 10.9416 10.2083 11.1569C11.0971 11.3722 11.9721 11.6951 12.8333 12.1257C13.236 12.334 13.5589 12.6361 13.802 13.0319C14.0451 13.4277 14.1666 13.8618 14.1666 14.334V16.6673H0.833252ZM2.49992 15.0007H12.4999V14.334C12.4999 14.1812 12.4617 14.0423 12.3853 13.9173C12.3089 13.7923 12.2083 13.6951 12.0833 13.6257C11.3333 13.2507 10.5763 12.9694 9.81242 12.7819C9.04853 12.5944 8.2777 12.5007 7.49992 12.5007C6.72214 12.5007 5.95131 12.5944 5.18742 12.7819C4.42353 12.9694 3.66659 13.2507 2.91659 13.6257C2.79159 13.6951 2.69089 13.7923 2.6145 13.9173C2.53811 14.0423 2.49992 14.1812 2.49992 14.334V15.0007ZM7.49992 8.33398C7.95825 8.33398 8.35061 8.17079 8.677 7.8444C9.00339 7.51801 9.16658 7.12565 9.16658 6.66732C9.16658 6.20898 9.00339 5.81662 8.677 5.49023C8.35061 5.16385 7.95825 5.00065 7.49992 5.00065C7.04158 5.00065 6.64922 5.16385 6.32284 5.49023C5.99645 5.81662 5.83325 6.20898 5.83325 6.66732C5.83325 7.12565 5.99645 7.51801 6.32284 7.8444C6.64922 8.17079 7.04158 8.33398 7.49992 8.33398Z" fill="#838383"/>
</g>
</svg>
