<svg width="20" height="20" viewBox="0 0 20 20" fill="none" xmlns="http://www.w3.org/2000/svg">
<mask id="mask0_4249_844" style="mask-type:alpha" maskUnits="userSpaceOnUse" x="0" y="0" width="20" height="20">
<rect width="20" height="20" fill="#D9D9D9"/>
</mask>
<g mask="url(#mask0_4249_844)">
<path d="M10 18.3337C8.84724 18.3337 7.76391 18.1149 6.75002 17.6774C5.73613 17.2399 4.85419 16.6462 4.10419 15.8962C3.35419 15.1462 2.76044 14.2642 2.32294 13.2503C1.88544 12.2364 1.66669 11.1531 1.66669 10.0003C1.66669 8.84755 1.88544 7.76421 2.32294 6.75033C2.76044 5.73644 3.35419 4.85449 4.10419 4.10449C4.85419 3.35449 5.73613 2.76074 6.75002 2.32324C7.76391 1.88574 8.84724 1.66699 10 1.66699C10.9028 1.66699 11.757 1.79894 12.5625 2.06283C13.3681 2.32671 14.1111 2.69477 14.7917 3.16699L13.5834 4.39616C13.0556 4.06283 12.4931 3.80241 11.8959 3.61491C11.2986 3.42741 10.6667 3.33366 10 3.33366C8.1528 3.33366 6.57988 3.98296 5.28127 5.28158C3.98266 6.58019 3.33335 8.1531 3.33335 10.0003C3.33335 11.8475 3.98266 13.4205 5.28127 14.7191C6.57988 16.0177 8.1528 16.667 10 16.667C11.8472 16.667 13.4202 16.0177 14.7188 14.7191C16.0174 13.4205 16.6667 11.8475 16.6667 10.0003C16.6667 9.75033 16.6528 9.50033 16.625 9.25033C16.5972 9.00033 16.5556 8.75727 16.5 8.52116L17.8542 7.16699C18.007 7.61144 18.125 8.06977 18.2084 8.54199C18.2917 9.01421 18.3334 9.50033 18.3334 10.0003C18.3334 11.1531 18.1146 12.2364 17.6771 13.2503C17.2396 14.2642 16.6459 15.1462 15.8959 15.8962C15.1459 16.6462 14.2639 17.2399 13.25 17.6774C12.2361 18.1149 11.1528 18.3337 10 18.3337ZM8.83335 13.8337L5.29169 10.292L6.45835 9.12533L8.83335 11.5003L17.1667 3.14616L18.3334 4.31283L8.83335 13.8337Z" fill="#838383"/>
</g>
</svg>
